<svg width="1000" height="1250" viewBox="0 0 1000 1250" xmlns="http://www.w3.org/2000/svg">
  <!-- serpentinas onduladas nas laterais -->
  <path d="M30 0 Q 70 60, 30 120 T 30 240 T 30 360 T 30 480 T 30 600 T 30 720 T 30 840 T 30 960 T 30 1080 T 30 1200 L 30 1250 L 0 1250 L 0 0 Z"
        fill="none" stroke="#7B3FA0" stroke-width="14"/>
  <path d="M970 0 Q 930 60, 970 120 T 970 240 T 970 360 T 970 480 T 970 600 T 970 720 T 970 840 T 970 960 T 970 1080 T 970 1200 L 970 1250 L 1000 1250 L 1000 0 Z"
        fill="none" stroke="#D9A93B" stroke-width="14"/>

  <!-- confete espalhado nos quatro cantos -->
  <g>
    <circle cx="70" cy="60" r="10" fill="#C23B3B"/>
    <circle cx="120" cy="40" r="7" fill="#3B6FA0"/>
    <circle cx="95" cy="100" r="8" fill="#4C8C4A"/>
    <circle cx="150" cy="85" r="6" fill="#D9A93B"/>

    <circle cx="930" cy="60" r="10" fill="#3B6FA0"/>
    <circle cx="880" cy="40" r="7" fill="#C23B3B"/>
    <circle cx="905" cy="100" r="8" fill="#D9A93B"/>
    <circle cx="850" cy="85" r="6" fill="#4C8C4A"/>

    <circle cx="70" cy="1190" r="10" fill="#4C8C4A"/>
    <circle cx="120" cy="1210" r="7" fill="#D9A93B"/>
    <circle cx="95" cy="1150" r="8" fill="#C23B3B"/>
    <circle cx="150" cy="1165" r="6" fill="#3B6FA0"/>

    <circle cx="930" cy="1190" r="10" fill="#D9A93B"/>
    <circle cx="880" cy="1210" r="7" fill="#4C8C4A"/>
    <circle cx="905" cy="1150" r="8" fill="#3B6FA0"/>
    <circle cx="850" cy="1165" r="6" fill="#C23B3B"/>
  </g>

  <!-- linha pontilhada colorida no topo -->
  <g stroke-width="8" stroke-linecap="round">
    <line x1="170" y1="46" x2="190" y2="46" stroke="#C23B3B"/>
    <line x1="210" y1="46" x2="230" y2="46" stroke="#D9A93B"/>
    <line x1="250" y1="46" x2="270" y2="46" stroke="#3B6FA0"/>
    <line x1="290" y1="46" x2="310" y2="46" stroke="#4C8C4A"/>
    <line x1="330" y1="46" x2="350" y2="46" stroke="#C23B3B"/>
    <line x1="370" y1="46" x2="390" y2="46" stroke="#D9A93B"/>
    <line x1="410" y1="46" x2="430" y2="46" stroke="#3B6FA0"/>
    <line x1="450" y1="46" x2="470" y2="46" stroke="#4C8C4A"/>
    <line x1="490" y1="46" x2="510" y2="46" stroke="#C23B3B"/>
    <line x1="530" y1="46" x2="550" y2="46" stroke="#D9A93B"/>
    <line x1="570" y1="46" x2="590" y2="46" stroke="#3B6FA0"/>
    <line x1="610" y1="46" x2="630" y2="46" stroke="#4C8C4A"/>
    <line x1="650" y1="46" x2="670" y2="46" stroke="#C23B3B"/>
    <line x1="690" y1="46" x2="710" y2="46" stroke="#D9A93B"/>
    <line x1="730" y1="46" x2="750" y2="46" stroke="#3B6FA0"/>
    <line x1="770" y1="46" x2="790" y2="46" stroke="#4C8C4A"/>
    <line x1="810" y1="46" x2="830" y2="46" stroke="#C23B3B"/>
  </g>
</svg>