<svg width="1000" height="1250" viewBox="0 0 1000 1250" xmlns="http://www.w3.org/2000/svg">
  <defs>
    <pattern id="floral" x="0" y="0" width="60" height="60" patternUnits="userSpaceOnUse">
      <path d="M30 10 C35 25, 50 25, 50 30 C50 35, 35 35, 30 50 C25 35, 10 35, 10 30 C10 25, 25 25, 30 10 Z" fill="#EADFCE" opacity="0.8"/>
      <circle cx="30" cy="30" r="4" fill="#D8CDB8" opacity="0.8"/>
    </pattern>
  </defs>

  <!-- Janela central (60,90 a 940,1090) -->
  <rect x="0" y="0" width="1000" height="90" fill="#F4EFE4"/>
  <rect x="0" y="1090" width="1000" height="160" fill="#F4EFE4"/>
  <rect x="0" y="0" width="60" height="1250" fill="#F4EFE4"/>
  <rect x="940" y="0" width="60" height="1250" fill="#F4EFE4"/>

  <rect x="0" y="0" width="1000" height="90" fill="url(#floral)"/>
  <rect x="0" y="1090" width="1000" height="160" fill="url(#floral)"/>
  <rect x="0" y="0" width="60" height="1250" fill="url(#floral)"/>
  <rect x="940" y="0" width="60" height="1250" fill="url(#floral)"/>

  <!-- Vintage border lines -->
  <rect x="20" y="20" width="960" height="1210" fill="none" stroke="#D8CDB8" stroke-width="3"/>
  <rect x="30" y="30" width="940" height="1190" fill="none" stroke="#D8CDB8" stroke-width="1"/>
  
  <rect x="50" y="80" width="900" height="1020" fill="none" stroke="#D8CDB8" stroke-width="3"/>
  <rect x="42" y="72" width="916" height="1036" fill="none" stroke="#D8CDB8" stroke-width="1"/>

  <!-- Ornaments -->
  <g fill="#D8CDB8">
    <circle cx="20" cy="20" r="6"/>
    <circle cx="980" cy="20" r="6"/>
    <circle cx="20" cy="1230" r="6"/>
    <circle cx="980" cy="1230" r="6"/>

    <circle cx="50" cy="80" r="4"/>
    <circle cx="950" cy="80" r="4"/>
    <circle cx="50" cy="1100" r="4"/>
    <circle cx="950" cy="1100" r="4"/>
  </g>

  <path d="M 280 1165 C 330 1150, 380 1150, 420 1165 C 380 1180, 330 1180, 280 1165 Z" fill="#D8CDB8"/>
  <circle cx="260" cy="1165" r="5" fill="#D8CDB8"/>
  <circle cx="240" cy="1165" r="3" fill="#D8CDB8"/>
  
  <path d="M 720 1165 C 670 1150, 620 1150, 580 1165 C 620 1180, 670 1180, 720 1165 Z" fill="#D8CDB8"/>
  <circle cx="740" cy="1165" r="5" fill="#D8CDB8"/>
  <circle cx="760" cy="1165" r="3" fill="#D8CDB8"/>

  <text x="500" y="1175" font-family="Georgia, serif" font-size="38" fill="#3A352D" text-anchor="middle" font-style="italic" font-weight="bold" letter-spacing="2">memórias reveladas</text>
  <text x="500" y="1215" font-family="Georgia, serif" font-size="13" fill="#8C8370" text-anchor="middle" letter-spacing="8">ESTÚDIO DE MOLDURAS</text>
</svg>
