<svg width="1000" height="1250" viewBox="0 0 1000 1250" xmlns="http://www.w3.org/2000/svg">
  <!-- varal com bandeirinhas no topo -->
  <line x1="10" y1="14" x2="990" y2="14" stroke="#5C4326" stroke-width="4"/>
  <g>
    <polygon points="40,16 90,16 65,72" fill="#C23B3B"/>
    <polygon points="120,16 170,16 145,72" fill="#D9A93B"/>
    <polygon points="200,16 250,16 225,72" fill="#3B6FA0"/>
    <polygon points="280,16 330,16 305,72" fill="#4C8C4A"/>
    <polygon points="360,16 410,16 385,72" fill="#D9A93B"/>
    <polygon points="440,16 490,16 465,72" fill="#C23B3B"/>
    <polygon points="520,16 570,16 545,72" fill="#3B6FA0"/>
    <polygon points="600,16 650,16 625,72" fill="#4C8C4A"/>
    <polygon points="680,16 730,16 705,72" fill="#D9A93B"/>
    <polygon points="760,16 810,16 785,72" fill="#C23B3B"/>
    <polygon points="840,16 890,16 865,72" fill="#3B6FA0"/>
    <polygon points="910,16 960,16 935,72" fill="#4C8C4A"/>
  </g>

  <!-- faixas laterais simples -->
  <rect x="0" y="80" width="26" height="1090" fill="#8C2E2E"/>
  <rect x="974" y="80" width="26" height="1090" fill="#8C2E2E"/>

  <!-- barra xadrez (toalha de festa) na base -->
  <g>
    <rect x="0" y="1170" width="1000" height="80" fill="#F4EFE4"/>
    <g fill="#8C2E2E">
      <rect x="0" y="1170" width="40" height="40"/><rect x="80" y="1170" width="40" height="40"/>
      <rect x="160" y="1170" width="40" height="40"/><rect x="240" y="1170" width="40" height="40"/>
      <rect x="320" y="1170" width="40" height="40"/><rect x="400" y="1170" width="40" height="40"/>
      <rect x="480" y="1170" width="40" height="40"/><rect x="560" y="1170" width="40" height="40"/>
      <rect x="640" y="1170" width="40" height="40"/><rect x="720" y="1170" width="40" height="40"/>
      <rect x="800" y="1170" width="40" height="40"/><rect x="880" y="1170" width="40" height="40"/>
      <rect x="960" y="1170" width="40" height="40"/>
      <rect x="40" y="1210" width="40" height="40"/><rect x="120" y="1210" width="40" height="40"/>
      <rect x="200" y="1210" width="40" height="40"/><rect x="280" y="1210" width="40" height="40"/>
      <rect x="360" y="1210" width="40" height="40"/><rect x="440" y="1210" width="40" height="40"/>
      <rect x="520" y="1210" width="40" height="40"/><rect x="600" y="1210" width="40" height="40"/>
      <rect x="680" y="1210" width="40" height="40"/><rect x="760" y="1210" width="40" height="40"/>
      <rect x="840" y="1210" width="40" height="40"/><rect x="920" y="1210" width="40" height="40"/>
    </g>
  </g>
</svg>